<svg width="26" height="26" viewBox="0 0 26 26" fill="none" xmlns="http://www.w3.org/2000/svg">
<path d="M16.1756 14.9011C15.4714 14.9011 14.8983 15.474 14.8983 16.1781C14.8983 16.8825 15.4714 17.4555 16.1756 17.4555C16.88 17.4555 17.4527 16.8825 17.4527 16.1781C17.4525 15.474 16.8798 14.9011 16.1756 14.9011Z" fill="url(#paint0_linear_141_440)"/>
<path d="M9.81008 8.53623C9.10571 8.53623 8.53265 9.10927 8.53265 9.81361C8.53282 10.5176 9.10588 11.0905 9.81008 11.0905C10.5143 11.0905 11.087 10.5176 11.087 9.81361C11.087 9.10927 10.5143 8.53623 9.81008 8.53623Z" fill="url(#paint1_linear_141_440)"/>
<path d="M13.0005 2C6.93459 2 2 6.93436 2 13C2 19.0653 6.93459 24 13.0005 24C19.0658 24 24 19.0653 24 13C24 6.93436 19.0658 2 13.0005 2ZM9.81019 7.1602C11.2729 7.1602 12.4634 8.35027 12.4634 9.81361C12.4634 11.2763 11.2729 12.4667 9.81019 12.4667C8.34695 12.4667 7.15666 11.2763 7.15666 9.81361C7.15666 8.35027 8.34713 7.1602 9.81019 7.1602ZM9.00355 17.9693C8.86948 18.1037 8.69295 18.171 8.51712 18.171C8.34111 18.171 8.16493 18.1037 8.03052 17.9693C7.76186 17.7006 7.76186 17.2647 8.03052 16.9964L16.9965 8.03058C17.2649 7.76194 17.7007 7.76194 17.9695 8.03058C18.2381 8.29922 18.2381 8.73509 17.9695 9.00356L9.00355 17.9693ZM16.1757 18.8314C14.7126 18.8314 13.5222 17.6411 13.5222 16.178C13.5222 14.7153 14.7126 13.5249 16.1757 13.5249C17.6386 13.5249 18.8289 14.7153 18.8289 16.178C18.8287 17.6411 17.6384 18.8314 16.1757 18.8314Z" fill="url(#paint2_linear_141_440)"/>
<defs>
<linearGradient id="paint0_linear_141_440" x1="2" y1="13" x2="24" y2="13" gradientUnits="userSpaceOnUse">
<stop stop-color="#121213"/>
<stop offset="1" stop-color="#212122"/>
</linearGradient>
<linearGradient id="paint1_linear_141_440" x1="2" y1="13" x2="24" y2="13" gradientUnits="userSpaceOnUse">
<stop stop-color="#121213"/>
<stop offset="1" stop-color="#212122"/>
</linearGradient>
<linearGradient id="paint2_linear_141_440" x1="2" y1="13" x2="24" y2="13" gradientUnits="userSpaceOnUse">
<stop stop-color="#121213"/>
<stop offset="1" stop-color="#212122"/>
</linearGradient>
</defs>
</svg>
