<svg width="26" height="26" viewBox="0 0 26 26" fill="none" xmlns="http://www.w3.org/2000/svg">
<path d="M24.7995 18.6184L22.6572 16.5074C22.462 16.3143 22.167 16.2565 21.9109 16.3617C21.6547 16.466 21.4882 16.7118 21.4882 16.9848V18.3409H19.7257V19.8569H21.4882V21.2084C21.4882 21.4816 21.6547 21.728 21.9109 21.8325C22.167 21.9375 22.462 21.8791 22.658 21.6859L24.7995 19.5733C25.0668 19.3098 25.0668 18.882 24.7995 18.6184Z" fill="url(#paint0_linear_141_450)"/>
<path d="M17.1256 14.2402H8.76087C8.67762 14.2402 8.60922 14.1729 8.60922 14.0906V12.7939C8.60922 12.2151 8.13397 11.7465 7.54687 11.7465H3.06239C2.47524 11.7465 2.00013 12.2151 2.00013 12.7939V23.1004C2.00013 23.6791 2.47529 24.1479 3.06239 24.1479H17.1256C17.7128 24.1479 18.1879 23.6791 18.1879 23.1004V15.2877C18.188 14.7089 17.7128 14.2402 17.1256 14.2402Z" fill="url(#paint1_linear_141_450)"/>
<path d="M22.6882 12.5253V5.86867C22.6882 5.37622 22.2826 4.97656 21.7832 4.97656H14.6567C14.5853 4.97656 14.5275 4.91958 14.5275 4.84928V3.74354C14.5275 3.25113 14.122 2.85156 13.6228 2.85156H9.80069C9.30151 2.85156 8.89604 3.25113 8.89604 3.74354V10.6117C9.62434 11.0515 10.1222 11.8278 10.1461 12.7243H17.1256C17.8089 12.7243 18.4262 12.9908 18.8908 13.4171H21.7832C22.2826 13.417 22.6882 13.0173 22.6882 12.5253Z" fill="url(#paint2_linear_141_450)"/>
<path d="M4.34202 9.45783C4.53795 9.65171 4.83296 9.70878 5.08822 9.6045C5.34436 9.49998 5.51183 9.25415 5.51183 8.98034V7.62717H7.35824V6.11118H5.51183V4.75681C5.51183 4.48374 5.34524 4.23717 5.08822 4.13193C4.83296 4.02774 4.5386 4.08476 4.34202 4.27933L2.2005 6.39041C1.93317 6.65326 1.93317 7.08171 2.2005 7.34529L4.34202 9.45783Z" fill="url(#paint3_linear_141_450)"/>
<defs>
<linearGradient id="paint0_linear_141_450" x1="2" y1="13.4997" x2="25" y2="13.4997" gradientUnits="userSpaceOnUse">
<stop stop-color="#121213"/>
<stop offset="1" stop-color="#212122"/>
</linearGradient>
<linearGradient id="paint1_linear_141_450" x1="2" y1="13.4997" x2="25" y2="13.4997" gradientUnits="userSpaceOnUse">
<stop stop-color="#121213"/>
<stop offset="1" stop-color="#212122"/>
</linearGradient>
<linearGradient id="paint2_linear_141_450" x1="2" y1="13.4997" x2="25" y2="13.4997" gradientUnits="userSpaceOnUse">
<stop stop-color="#121213"/>
<stop offset="1" stop-color="#212122"/>
</linearGradient>
<linearGradient id="paint3_linear_141_450" x1="2" y1="13.4997" x2="25" y2="13.4997" gradientUnits="userSpaceOnUse">
<stop stop-color="#121213"/>
<stop offset="1" stop-color="#212122"/>
</linearGradient>
</defs>
</svg>
