<svg width="26" height="26" viewBox="0 0 26 26" fill="none" xmlns="http://www.w3.org/2000/svg">
<path d="M18.1796 6.58359C18.3793 6.16527 18.5 5.70275 18.5 5.20854C18.5 3.43693 17.0639 2 15.2916 2C14.3929 2 13.5827 2.37234 13 2.96775C12.4173 2.37234 11.6071 2 10.7084 2C8.93607 2 7.5 3.43693 7.5 5.20854C7.5 5.70275 7.62074 6.16527 7.82039 6.58359H2V10.2503H24V6.58359H18.1796ZM12.0834 6.58359H10.7084C9.94997 6.58359 9.33342 5.96675 9.33342 5.20854C9.33342 4.45006 9.94997 3.83349 10.7084 3.83349C11.4666 3.83349 12.0834 4.45006 12.0834 5.20854V6.58359ZM15.2916 6.58359H13.9166V5.20854C13.9166 4.45006 14.5334 3.83349 15.2916 3.83349C16.05 3.83349 16.6666 4.45006 16.6666 5.20854C16.6666 5.96675 16.05 6.58359 15.2916 6.58359Z" fill="url(#paint0_linear_141_445)"/>
<path d="M12.0834 12.0838H3.83342V24H12.0834V12.0838Z" fill="url(#paint1_linear_141_445)"/>
<path d="M22.1658 12.0838H13.9158V24H22.1658V12.0838Z" fill="url(#paint2_linear_141_445)"/>
<defs>
<linearGradient id="paint0_linear_141_445" x1="2" y1="13" x2="24" y2="13" gradientUnits="userSpaceOnUse">
<stop stop-color="#121213"/>
<stop offset="1" stop-color="#212122"/>
</linearGradient>
<linearGradient id="paint1_linear_141_445" x1="2" y1="13" x2="24" y2="13" gradientUnits="userSpaceOnUse">
<stop stop-color="#121213"/>
<stop offset="1" stop-color="#212122"/>
</linearGradient>
<linearGradient id="paint2_linear_141_445" x1="2" y1="13" x2="24" y2="13" gradientUnits="userSpaceOnUse">
<stop stop-color="#121213"/>
<stop offset="1" stop-color="#212122"/>
</linearGradient>
</defs>
</svg>
