<svg width="22" height="22" viewBox="0 0 22 22" fill="none" xmlns="http://www.w3.org/2000/svg">
<path d="M12.5025 2.00674C12.3129 1.97956 12.1224 2.03562 11.9709 2.15624C11.8151 2.27855 11.7178 2.45523 11.6966 2.65315C11.6517 3.05322 11.9404 3.41507 12.3399 3.46009C15.0954 3.76758 17.237 5.91406 17.5469 8.67806C17.5883 9.04841 17.899 9.32786 18.2698 9.32786C18.2977 9.32786 18.3248 9.32617 18.3527 9.32277C18.5466 9.30153 18.7193 9.20555 18.8412 9.05265C18.9622 8.89976 19.0173 8.70949 18.9953 8.51497C18.6092 5.06634 15.9402 2.38983 12.5025 2.00674Z" fill="#390651"/>
<path d="M12.5554 4.96645C12.1507 4.8917 11.7791 5.14992 11.7021 5.5449C11.6251 5.93988 11.8841 6.32551 12.2777 6.40281C13.4628 6.63385 14.3779 7.55122 14.6099 8.74041C14.6759 9.08272 14.9773 9.33245 15.3243 9.33245C15.3709 9.33245 15.4175 9.3282 15.4649 9.31971C15.8585 9.24071 16.1175 8.85593 16.0405 8.4601C15.6943 6.68397 14.3271 5.31216 12.5554 4.96645Z" fill="#390651"/>
<path d="M13.9001 13.127C14.2838 12.9057 14.7172 12.6558 15.264 12.7721C15.7592 12.8766 17.4471 14.2467 17.9093 14.7215C18.2124 15.0324 18.3809 15.3535 18.4071 15.6745C18.4528 16.9342 16.7411 18.3723 16.4296 18.5515C16.0157 18.8497 15.534 19 14.9931 19C14.4403 19 13.8241 18.8429 13.1519 18.5294C9.50513 17.0073 3.9342 11.5464 2.46126 7.92786C1.85008 6.58068 1.84584 5.46964 2.4511 4.63467C2.69236 4.24308 4.06795 2.60626 5.29963 2.65807C5.62723 2.6861 5.94552 2.85429 6.25789 3.16008C6.73024 3.62301 8.06605 5.3159 8.16932 5.81281C8.2836 6.36493 8.03303 6.80408 7.8104 7.18971C7.76291 7.27261 7.69893 7.37099 7.62884 7.47877C7.36282 7.88781 7.00875 8.43225 7.13403 8.77982C8.03219 10.9849 10.107 12.9088 12.313 13.8126C12.6542 13.9366 13.1983 13.58 13.606 13.3128C13.7123 13.2432 13.8092 13.1796 13.8909 13.1322L13.9001 13.127Z" fill="#390651"/>
</svg>
