<svg width="26" height="26" viewBox="0 0 26 26" fill="none" xmlns="http://www.w3.org/2000/svg">
<path d="M22.9993 12.9456C22.9993 9.05921 20.6561 5.54226 17.0299 3.98579C16.5588 3.78361 16.0103 3.99475 15.8046 4.45737C15.5989 4.91993 15.8139 5.45878 16.2846 5.66091C19.233 6.92641 21.1381 9.78575 21.1381 12.9456C21.1381 15.4488 19.9397 17.765 17.9748 19.2484L18.6068 16.1271C18.7071 15.632 18.3798 15.1507 17.8757 15.0522C17.3715 14.9538 16.8818 15.2752 16.7815 15.7703L15.7448 20.8892C15.6967 21.127 15.7466 21.3738 15.8838 21.5754C16.0209 21.777 16.2339 21.9168 16.4759 21.9641L21.6873 22.9822C21.7486 22.9942 21.8097 23 21.8699 23C22.3047 23 22.6934 22.699 22.7815 22.264C22.8817 21.7689 22.5544 21.2878 22.0504 21.1893L19.1963 20.6317C21.5612 18.805 22.9993 15.9872 22.9993 12.9456Z" fill="url(#paint0_linear_141_433)"/>
<path d="M8.12396 11.8567C8.18525 11.8686 8.24635 11.8744 8.30653 11.8744C8.74139 11.8744 9.13004 11.5735 9.21813 11.1385L10.2547 6.01966C10.3549 5.52456 10.0276 5.04336 9.52359 4.94489L4.31247 3.92672C3.80844 3.8285 3.31855 4.14981 3.21824 4.64484C3.11799 5.14 3.44529 5.62115 3.94932 5.71968L6.80559 6.27766C4.44088 8.1062 3 10.9285 3 13.9636C3 17.85 5.34312 21.3669 8.96931 22.9232C9.09065 22.9753 9.21701 23 9.34139 23C9.69996 23 10.0418 22.7951 10.1946 22.4517C10.4003 21.989 10.1854 21.4502 9.71447 21.2481C6.7662 19.9827 4.86111 17.1234 4.86111 13.9636C4.86111 11.4665 6.06093 9.14649 8.02477 7.66174L7.39288 10.7819C7.29263 11.277 7.61993 11.7582 8.12396 11.8567Z" fill="url(#paint1_linear_141_433)"/>
<defs>
<linearGradient id="paint0_linear_141_433" x1="15.7266" y1="13.4545" x2="22.9993" y2="13.4545" gradientUnits="userSpaceOnUse">
<stop stop-color="#121213"/>
<stop offset="1" stop-color="#212122"/>
</linearGradient>
<linearGradient id="paint1_linear_141_433" x1="3" y1="13.4545" x2="10.2727" y2="13.4545" gradientUnits="userSpaceOnUse">
<stop stop-color="#121213"/>
<stop offset="1" stop-color="#212122"/>
</linearGradient>
</defs>
</svg>
