<svg width="80" height="20" viewBox="0 0 80 20" fill="none" xmlns="http://www.w3.org/2000/svg">
<path d="M70.7341 13.0653C70.7341 10.9673 72.2549 9.31224 74.1737 9.31224C76.0925 9.31224 77.4962 10.9207 77.4962 13.0653C77.4962 15.2098 76.0691 16.8649 74.1737 16.8649C72.2782 16.8649 70.7341 15.1865 70.7341 13.0653ZM64.1357 18.9162H66.8265V7.26093H64.1357V18.9162ZM63.7144 3.3681C63.7144 4.37044 64.5336 5.1863 65.4928 5.1863C66.4519 5.1863 67.2478 4.37044 67.2478 3.3681C67.2478 2.43567 66.4519 1.64313 65.4928 1.64313C64.5336 1.64313 63.7144 2.43567 63.7144 3.3681ZM53.1618 13.0419C53.1618 10.944 54.706 9.31224 56.6947 9.31224C58.684 9.31224 60.2281 10.944 60.2281 13.0419C60.2281 15.1399 58.6602 16.8649 56.6947 16.8649C54.7293 16.8649 53.1618 15.1632 53.1618 13.0419ZM50.4238 13.0419C50.4238 16.5385 53.1851 19.2892 56.6947 19.2892C60.2048 19.2892 62.9656 16.5385 62.9656 13.0419C62.9656 9.54536 60.2515 6.88795 56.6947 6.88795C53.1385 6.88795 50.4238 9.56868 50.4238 13.0419ZM43.1471 18.9162H45.838V12.8088C45.838 10.3845 47.1246 9.31224 49.2776 9.31224C49.6751 9.31224 49.9797 9.33556 50.2601 9.40551V7.05112C49.9797 6.9579 49.488 6.88795 48.9501 6.88795C45.2996 6.88795 43.1471 9.17239 43.1471 12.8088V18.9162ZM32.3603 13.0653C32.3603 10.9673 33.8812 9.31224 35.8 9.31224C37.7187 9.31224 39.1225 10.9207 39.1225 13.0653C39.1225 15.2098 37.6954 16.8649 35.8 16.8649C33.9046 16.8649 32.3603 15.1865 32.3603 13.0653ZM29.6227 13.0653C29.6227 16.4453 32.3369 19.2892 35.5424 19.2892C36.8762 19.2892 38.0929 18.753 38.8183 17.8672H38.9354V18.9162H41.6263V0.710693H38.9354V8.21668H38.8183C38.1162 7.37751 36.8995 6.88795 35.5424 6.88795C32.3135 6.88795 29.6227 9.70854 29.6227 13.0653ZM17.8298 18.9162H20.5206V12.0862C20.5206 10.4545 21.6203 9.31224 23.1412 9.31224C24.6622 9.31224 25.7619 10.4545 25.7619 12.0862V18.9162H28.4528V12.0862C28.4528 9.24234 26.1831 6.88795 23.1412 6.88795C20.0994 6.88795 17.8298 9.24234 17.8298 12.0862V18.9162ZM5.47526 11.923L8.37671 3.64781H8.51709L11.4185 11.923H5.47526ZM0 18.9162H3.04182L4.56271 14.5804H12.3311L13.852 18.9162H16.8938L10.1316 0.710693H6.76219L0 18.9162ZM73.9162 19.2892C75.2499 19.2892 76.4666 18.753 77.192 17.8672H77.3091V18.9162H80V0.710693H77.3091V8.21668H77.192C76.4899 7.37751 75.2733 6.88795 73.9162 6.88795C70.6874 6.88795 67.9966 9.70854 67.9966 13.0653C67.9966 16.4219 70.7107 19.2892 73.9162 19.2892Z" fill="white"/>
</svg>
