<svg width="19" height="24" viewBox="0 0 19 24" fill="none" xmlns="http://www.w3.org/2000/svg">
<g clip-path="url(#clip0_3412_10695)">
<path d="M18.3955 8.1816C18.2601 8.2896 15.8699 9.6744 15.8699 12.7536C15.8699 16.3152 18.9113 17.5752 19.0023 17.6064C18.9883 17.6832 18.5192 19.332 17.3988 21.012C16.3998 22.4904 15.3564 23.9664 13.7692 23.9664C12.1819 23.9664 11.7735 23.0184 9.94115 23.0184C8.15553 23.0184 7.52064 23.9976 6.0688 23.9976C4.61695 23.9976 3.60393 22.6296 2.43919 20.9496C1.09005 18.9768 0 15.912 0 13.0032C0 8.3376 2.95037 5.8632 5.85405 5.8632C7.39693 5.8632 8.68305 6.9048 9.65172 6.9048C10.5737 6.9048 12.0115 5.8008 13.7668 5.8008C14.4321 5.8008 16.8222 5.8632 18.3955 8.1816ZM12.9335 3.8256C13.6595 2.94 14.173 1.7112 14.173 0.4824C14.173 0.312 14.159 0.1392 14.1286 0C12.9475 0.0456 11.5424 0.8088 10.6951 1.8192C10.0299 2.5968 9.40897 3.8256 9.40897 5.0712C9.40897 5.2584 9.43931 5.4456 9.45332 5.5056C9.52801 5.52 9.64939 5.5368 9.77076 5.5368C10.8305 5.5368 12.1633 4.8072 12.9335 3.8256Z" fill="white"/>
</g>
<defs>
<clipPath id="clip0_3412_10695">
<rect width="19" height="24" fill="white"/>
</clipPath>
</defs>
</svg>
