<svg width="63" height="24" viewBox="0 0 63 24" fill="none" xmlns="http://www.w3.org/2000/svg">
<g clip-path="url(#clip0_3412_10697)">
<path d="M8.90893 11.9046C8.90893 13.4961 7.6362 14.7694 6.04529 14.7694C4.45439 14.7694 3.18166 13.4961 3.18166 11.9046C3.18166 10.3131 4.45439 9.03991 6.04529 9.03991H8.90893V11.9046ZM12.0907 0.127441H8.90893V5.92054C7.82711 5.92054 6.7453 5.92054 6.04529 5.92054C2.7362 5.92054 0.0634766 8.59428 0.0634766 11.9046C0.0634766 15.215 2.7362 17.8887 6.04529 17.8887C9.35439 17.8887 12.0271 15.215 12.0271 11.9046C12.0271 10.2495 12.0271 5.92054 12.0271 5.92054L12.0907 0.127441Z" fill="white"/>
<path d="M43.718 14.7692C45.3089 14.7692 46.5816 13.496 46.5816 11.9045C46.5816 10.313 45.3089 9.03977 43.718 9.03977C42.1271 9.03977 40.8543 10.313 40.8543 11.9045C40.918 13.496 42.1907 14.7692 43.718 14.7692ZM37.7998 11.9045C37.7998 8.59415 40.4725 5.92041 43.7816 5.92041C47.0907 5.92041 49.7634 8.59415 49.7634 11.9045C49.7634 15.2148 47.0907 17.8886 43.7816 17.8886C40.4725 17.8886 37.7998 15.2148 37.7998 11.9045Z" fill="white"/>
<path d="M59.7543 11.9045C59.7543 10.3766 58.4816 9.10343 56.9543 9.10343C55.427 9.10343 54.1543 10.3766 54.1543 11.9045C54.1543 12.6684 54.1543 17.6339 54.1543 17.6339C52.5634 17.6339 51.0361 17.6339 51.0361 17.6339C51.0361 17.6339 51.0361 13.5597 51.0361 11.9045C51.0361 8.59415 53.7089 5.92041 57.018 5.92041C60.327 5.92041 62.9998 8.59415 62.9998 11.9045C62.9998 13.5597 62.9998 17.6339 62.9998 17.6339C62.9998 17.6339 61.4725 17.6339 59.8816 17.6339C59.7543 17.6339 59.7543 12.6684 59.7543 11.9045Z" fill="white"/>
<path d="M30.4819 9.8673C30.0365 9.549 30.1637 9.03971 30.9274 8.84873C31.8819 8.59409 33.5365 8.78507 34.9365 9.42168L36.4001 7.38454C35.7638 6.87526 34.3638 6.17499 32.3274 6.04767C32.3274 6.04767 28.891 5.60205 27.491 8.21213C27.491 8.21213 26.2819 10.6312 28.7001 12.1591C30.1637 13.0503 32.7092 13.4323 33.5365 13.8143C34.1728 14.1962 33.9819 14.8965 33.0274 15.0875C31.3728 15.4694 29.2092 14.5145 28.5092 14.0052L26.9819 16.106C28.0001 16.87 29.2728 17.5702 31.3092 17.8885C31.3092 17.8885 34.5547 18.4615 36.3365 16.2333C36.6547 15.8514 38.1183 13.114 35.191 11.5225C33.6638 10.6949 31.2456 10.3129 30.4819 9.8673Z" fill="white"/>
<path d="M15.8456 19.9257C15.9729 19.9894 17.4365 21.0079 18.8365 21.0079C22.2729 21.0716 22.4638 17.5066 22.4638 16.679C21.8274 17.3793 20.4911 17.8249 19.6638 17.8249C16.3547 17.8249 13.7456 15.2785 13.7456 11.9682C13.7456 10.313 13.7456 6.17505 13.7456 6.17505C13.7456 6.17505 15.2729 6.17505 16.8638 6.17505C16.8638 6.17505 16.8638 11.2679 16.8638 11.9682C16.8638 13.496 18.1365 14.7692 19.6638 14.7692C21.1911 14.7692 22.4638 13.496 22.4638 11.9682C22.4638 11.3315 22.4638 6.17505 22.4638 6.17505C24.0547 6.17505 25.582 6.17505 25.582 6.17505V11.9682C25.582 17.1247 25.8365 22.4085 20.8092 23.618C17.0547 24.5093 14.382 22.1538 14.1911 22.0265L15.8456 19.9257Z" fill="white"/>
</g>
<defs>
<clipPath id="clip0_3412_10697">
<rect width="63" height="24" fill="white"/>
</clipPath>
</defs>
</svg>
