<svg width="31" height="24" viewBox="0 0 31 24" fill="none" xmlns="http://www.w3.org/2000/svg">
<g clip-path="url(#clip0_3412_10703)">
<path fill-rule="evenodd" clip-rule="evenodd" d="M30.5719 18.2864C29.9724 19.0429 28.5036 19.5825 28.5036 19.5825L17.5775 23.5076V20.6129L25.6184 17.7475C26.5308 17.4205 26.671 16.9583 25.9293 16.7157C25.189 16.4724 23.8485 16.5421 22.9353 16.8705L17.5775 18.7577V15.7536L17.8863 15.649C17.8863 15.649 19.4345 15.101 21.6115 14.8598C23.7885 14.62 26.4542 14.8926 28.5468 15.686C30.9051 16.4312 31.1706 17.53 30.5719 18.2864ZM18.6175 13.3574V5.95482C18.6175 5.08544 18.4572 4.28509 17.6416 4.0585C17.017 3.85842 16.6294 4.43846 16.6294 5.30714V23.845L11.6306 22.2582V0.155029C13.7561 0.54963 16.8525 1.48245 18.5172 2.04367C22.7506 3.49728 24.1859 5.30645 24.1859 9.38282C24.1859 13.356 21.7335 14.8619 18.6175 13.3574ZM2.4584 20.3103C0.0374181 19.6285 -0.365497 18.2076 0.737989 17.3892C1.75783 16.6334 3.49217 16.0645 3.49217 16.0645L10.6596 13.5157V16.4215L5.50187 18.2676C4.59078 18.5946 4.45067 19.0575 5.19097 19.3001C5.93197 19.5427 7.27317 19.4737 8.18565 19.146L10.6596 18.2481V20.8478C10.5028 20.8757 10.3278 20.9036 10.1661 20.9308C7.69142 21.3352 5.05574 21.1665 2.4584 20.3103ZM28.9797 21.4614C29.2927 21.4614 29.5862 21.5827 29.8071 21.8065C30.0281 22.0268 30.1501 22.321 30.1501 22.6333C30.1501 22.947 30.0281 23.2398 29.8071 23.4601C29.5862 23.6825 29.2927 23.8039 28.9797 23.8039C28.6667 23.8039 28.3739 23.6825 28.1523 23.4601C27.9313 23.2398 27.81 22.947 27.81 22.6333C27.81 21.9877 28.3342 21.4614 28.9797 21.4614ZM28.0066 22.6333C28.0066 22.8933 28.1077 23.1381 28.2917 23.3207C28.475 23.5062 28.7204 23.6066 28.9797 23.6066C29.5172 23.6066 29.9528 23.1701 29.9528 22.6333C29.9528 22.3726 29.8525 22.1279 29.6677 21.9445C29.4844 21.759 29.239 21.6593 28.9797 21.6593C28.7204 21.6593 28.475 21.759 28.2917 21.9445C28.1077 22.1279 28.0066 22.3726 28.0066 22.6333ZM29.3331 22.0024C29.4614 22.0588 29.5262 22.1676 29.5262 22.3224C29.5262 22.4018 29.5095 22.4688 29.4753 22.5211C29.4509 22.5587 29.4161 22.5894 29.377 22.6159C29.4077 22.634 29.4349 22.6556 29.4551 22.6807C29.483 22.717 29.499 22.7748 29.5011 22.8536L29.5074 23.0202C29.5095 23.0649 29.5123 23.099 29.5193 23.1199C29.5262 23.1506 29.5395 23.1701 29.5562 23.1764L29.5736 23.1848V23.2036V23.2322V23.2608H29.5451H29.338H29.3213L29.3129 23.2461C29.3059 23.2322 29.3011 23.2162 29.2962 23.1952C29.2927 23.1764 29.2892 23.1436 29.2871 23.0934L29.2767 22.8864C29.2739 22.8146 29.2495 22.77 29.2035 22.7463C29.1749 22.733 29.1275 22.7267 29.0634 22.7267H28.7085V23.2322V23.2608H28.6793H28.5106H28.482V23.2322V21.9863V21.9578H28.5106H29.0871C29.186 21.9578 29.269 21.9724 29.3331 22.0024ZM28.7085 22.5273H29.0696C29.1421 22.5273 29.2 22.5141 29.2411 22.4869C29.2788 22.4597 29.2969 22.4102 29.2969 22.3384C29.2969 22.2603 29.2711 22.2094 29.2167 22.1822C29.1867 22.1676 29.1449 22.1592 29.0919 22.1592H28.7085V22.5273Z" fill="white"/>
</g>
<defs>
<clipPath id="clip0_3412_10703">
<rect width="31" height="24" fill="white"/>
</clipPath>
</defs>
</svg>
